<?xml version="1.0" standalone="no"?>
<!DOCTYPE svg PUBLIC "-//W3C//DTD SVG 20010904//EN"
 "http://www.w3.org/TR/2001/REC-SVG-20010904/DTD/svg10.dtd">
<svg version="1.0" xmlns="http://www.w3.org/2000/svg"
 width="1483.000000pt" height="260.000000pt" viewBox="0 0 1483.000000 260.000000"
 preserveAspectRatio="xMidYMid meet">

<g transform="translate(0.000000,260.000000) scale(0.100000,-0.100000)"
fill="#000000" stroke="none">
<path d="M692 2505 c-74 -16 -153 -51 -219 -96 -62 -43 -153 -128 -153 -144 0
-7 71 -79 157 -159 l157 -146 597 0 596 0 156 146 c87 80 157 152 157 159 0
19 -118 124 -184 164 -78 47 -170 78 -252 86 -102 10 -191 -12 -319 -79 -143
-75 -166 -75 -309 0 -154 80 -251 98 -384 69z"/>
<path d="M460 1663 c-184 -197 -311 -446 -367 -720 -14 -68 -18 -134 -17 -288
1 -302 31 -420 135 -524 49 -48 102 -78 174 -97 73 -20 1617 -20 1690 0 71 18
124 48 172 94 104 101 136 225 137 527 1 154 -3 220 -17 288 -56 274 -185 528
-368 722 l-81 85 -688 0 -688 0 -82 -87z m915 -155 c-32 -55 -33 -131 -3 -224
49 -158 9 -259 -96 -240 -56 11 -81 55 -81 141 0 58 6 82 32 137 34 73 77 139
125 194 41 47 52 43 23 -8z m379 -126 c-93 -225 -200 -320 -277 -248 -86 79
-21 178 184 281 71 35 115 52 117 45 3 -7 -8 -42 -24 -78z m-576 -62 c-32 -44
-37 -145 -10 -231 20 -66 25 -97 23 -157 -1 -47 -48 -92 -94 -92 -71 0 -112
62 -105 160 5 75 76 221 143 298 50 56 80 71 43 22z m-214 -227 c-32 -61 -31
-123 2 -238 19 -65 25 -102 20 -127 -20 -110 -144 -130 -191 -32 -43 90 20
265 147 410 42 47 50 42 22 -13z m622 -35 c94 -30 187 -30 237 0 51 30 56 28
21 -9 -40 -44 -164 -124 -227 -148 -88 -32 -138 -36 -190 -13 -50 22 -67 45
-67 92 0 93 87 123 226 78z m-187 -203 c107 -32 155 -32 216 0 27 13 51 23 52
21 8 -7 -98 -93 -158 -129 -163 -96 -301 -98 -347 -3 -31 63 33 136 118 136
19 0 73 -12 119 -25z m-219 -206 c90 -30 185 -30 234 -1 49 29 55 28 25 -4
-67 -72 -212 -155 -306 -174 -97 -20 -183 25 -183 97 0 96 89 127 230 82z
m-345 -124 c25 -25 45 -49 45 -53 0 -12 -206 -182 -221 -182 -20 0 -49 31 -49
53 0 19 157 225 172 226 4 1 28 -19 53 -44z"/>
<path d="M3520 1729 c-98 -8 -151 -23 -233 -66 -188 -99 -287 -296 -287 -571
0 -304 149 -517 402 -577 84 -20 240 -19 309 1 121 36 225 114 267 202 9 17
18 32 22 32 3 0 15 -52 25 -115 l18 -115 59 0 58 0 0 290 0 290 -230 0 -230 0
0 -65 0 -65 145 0 c164 0 158 5 125 -84 -70 -185 -304 -270 -535 -194 -113 36
-192 113 -236 227 -28 71 -38 255 -19 340 29 131 114 237 226 282 51 21 75 24
184 23 144 0 206 -18 280 -81 39 -34 100 -137 100 -171 0 -8 7 -11 18 -8 9 3
44 8 77 12 33 3 63 8 67 10 10 6 -19 100 -49 158 -52 103 -168 195 -283 226
-64 18 -193 26 -280 19z"/>
<path d="M5950 1728 c-194 -15 -339 -106 -422 -264 -58 -110 -72 -177 -73
-344 0 -167 10 -219 66 -336 65 -138 178 -230 330 -271 79 -21 271 -23 349 -4
200 49 338 189 396 401 25 90 25 319 1 410 -37 140 -132 277 -232 335 -104 61
-248 87 -415 73z m231 -178 c121 -38 200 -120 240 -250 56 -183 24 -397 -78
-510 -80 -89 -178 -130 -313 -130 -210 1 -347 111 -396 317 -21 90 -14 254 15
335 45 129 140 219 258 247 72 17 206 12 274 -9z"/>
<path d="M7309 1729 c-235 -19 -416 -158 -485 -373 -34 -106 -44 -303 -21
-413 44 -207 184 -357 392 -419 84 -26 286 -26 370 0 89 27 152 62 211 118 82
77 131 164 158 281 l6 27 -90 0 c-64 0 -92 -4 -94 -12 -24 -83 -44 -118 -95
-169 -45 -44 -71 -61 -122 -77 -88 -29 -162 -35 -243 -22 -229 37 -350 216
-333 494 9 155 55 255 149 326 68 51 129 71 234 77 213 13 363 -80 399 -244
l7 -33 89 0 c49 0 89 4 89 8 0 24 -36 124 -62 175 -57 107 -180 205 -298 238
-65 17 -173 25 -261 18z"/>
<path d="M4380 1115 l0 -595 85 0 85 0 2 253 3 252 175 0 c167 0 177 -1 225
-25 72 -36 85 -68 94 -232 11 -179 28 -217 116 -254 44 -18 105 -13 143 12 18
12 22 24 22 65 0 49 -1 51 -24 45 -36 -9 -73 12 -86 47 -6 17 -15 74 -21 127
-6 52 -18 113 -28 135 -20 46 -73 95 -101 95 -10 0 -22 5 -25 10 -3 6 4 10 17
10 62 1 153 73 184 146 25 61 36 167 24 235 -27 146 -105 219 -273 253 -58 12
-139 16 -347 16 l-270 0 0 -595z m559 445 c133 -22 180 -73 181 -198 0 -75
-16 -119 -58 -154 -46 -38 -111 -48 -322 -48 l-190 0 0 198 c0 109 3 202 7
205 10 11 311 8 382 -3z"/>
<path d="M8130 1115 l0 -595 420 0 420 0 0 70 0 70 -335 0 -335 0 0 195 0 195
253 2 252 3 3 73 3 72 -256 0 -255 0 0 180 0 180 325 0 325 0 0 75 0 75 -410
0 -410 0 0 -595z"/>
<path d="M9180 1116 l0 -596 85 0 85 0 0 255 0 255 150 0 c178 0 239 -11 286
-52 41 -36 51 -70 59 -203 9 -156 14 -173 52 -216 55 -60 128 -72 206 -33 24
13 27 20 27 66 l0 51 -31 -7 c-35 -7 -64 6 -79 34 -6 11 -17 72 -25 135 -18
146 -39 190 -109 224 l-49 24 47 12 c64 16 115 61 151 130 28 55 30 65 30 174
0 110 -2 119 -30 171 -37 67 -96 113 -183 142 -62 20 -90 22 -369 26 l-303 4
0 -596z m615 434 c129 -39 171 -241 69 -337 -47 -44 -102 -53 -324 -53 l-190
0 0 206 0 207 203 -6 c112 -3 220 -10 242 -17z"/>
<path d="M10179 1693 c5 -10 95 -179 200 -376 l191 -358 0 -219 0 -220 90 0
90 0 0 220 0 220 200 369 c110 203 200 372 200 375 0 3 -42 6 -93 6 l-94 0
-150 -302 -150 -303 -148 303 -148 302 -99 0 c-91 0 -98 -1 -89 -17z"/>
<path d="M11310 1115 l0 -595 85 0 85 0 0 275 0 275 313 -2 312 -3 3 -272 2
-273 85 0 85 0 0 595 0 595 -85 0 -85 0 0 -255 0 -255 -315 0 -315 0 0 255 0
255 -85 0 -85 0 0 -595z"/>
<path d="M12532 1288 c4 -408 5 -425 26 -482 61 -163 163 -257 322 -297 71
-17 239 -17 310 0 167 41 273 142 324 310 18 61 20 100 24 479 l3 412 -90 0
-90 0 -3 -402 c-3 -395 -4 -404 -27 -463 -32 -82 -97 -145 -175 -169 -75 -24
-201 -19 -268 11 -62 28 -122 92 -150 161 -22 56 -23 67 -26 460 l-3 402 -90
0 -90 0 3 -422z"/>
<path d="M13780 1114 l0 -596 323 5 c345 5 398 12 495 61 95 49 143 130 144
245 1 95 -23 160 -76 209 -52 48 -107 70 -217 86 l-84 12 63 8 c165 19 247 91
259 225 12 128 -35 228 -133 283 -89 49 -157 58 -481 58 l-293 0 0 -596z m645
426 c63 -32 87 -72 89 -148 1 -78 -17 -117 -71 -149 -37 -21 -62 -27 -168 -35
-69 -5 -169 -7 -222 -6 l-98 3 -3 184 -2 183 212 -4 c203 -3 215 -4 263 -28z
m-65 -480 c78 -13 147 -45 173 -81 48 -67 40 -189 -16 -247 -51 -53 -103 -63
-349 -69 l-218 -6 0 207 0 206 173 0 c94 0 201 -5 237 -10z"/>
</g>
</svg>
