<?xml version="1.0" standalone="no"?>
<!DOCTYPE svg PUBLIC "-//W3C//DTD SVG 20010904//EN"
 "http://www.w3.org/TR/2001/REC-SVG-20010904/DTD/svg10.dtd">
<svg version="1.0" xmlns="http://www.w3.org/2000/svg"
 width="251.000000pt" height="260.000000pt" viewBox="0 0 251.000000 260.000000"
 preserveAspectRatio="xMidYMid meet">

<g transform="translate(0.000000,260.000000) scale(0.100000,-0.100000)"
fill="#000000" stroke="none">
<path d="M692 2505 c-74 -16 -153 -51 -219 -96 -62 -43 -153 -128 -153 -144 0
-7 71 -79 157 -159 l157 -146 597 0 596 0 156 146 c87 80 157 152 157 159 0
19 -118 124 -184 164 -78 47 -170 78 -252 86 -102 10 -191 -12 -319 -79 -143
-75 -166 -75 -309 0 -154 80 -251 98 -384 69z"/>
<path d="M460 1663 c-184 -197 -311 -446 -367 -720 -14 -68 -18 -134 -17 -288
1 -302 31 -420 135 -524 49 -48 102 -78 174 -97 73 -20 1617 -20 1690 0 71 18
124 48 172 94 104 101 136 225 137 527 1 154 -3 220 -17 288 -56 274 -185 528
-368 722 l-81 85 -688 0 -688 0 -82 -87z m915 -155 c-32 -55 -33 -131 -3 -224
49 -158 9 -259 -96 -240 -56 11 -81 55 -81 141 0 58 6 82 32 137 34 73 77 139
125 194 41 47 52 43 23 -8z m379 -126 c-93 -225 -200 -320 -277 -248 -86 79
-21 178 184 281 71 35 115 52 117 45 3 -7 -8 -42 -24 -78z m-576 -62 c-32 -44
-37 -145 -10 -231 20 -66 25 -97 23 -157 -1 -47 -48 -92 -94 -92 -71 0 -112
62 -105 160 5 75 76 221 143 298 50 56 80 71 43 22z m-214 -227 c-32 -61 -31
-123 2 -238 19 -65 25 -102 20 -127 -20 -110 -144 -130 -191 -32 -43 90 20
265 147 410 42 47 50 42 22 -13z m622 -35 c94 -30 187 -30 237 0 51 30 56 28
21 -9 -40 -44 -164 -124 -227 -148 -88 -32 -138 -36 -190 -13 -50 22 -67 45
-67 92 0 93 87 123 226 78z m-187 -203 c107 -32 155 -32 216 0 27 13 51 23 52
21 8 -7 -98 -93 -158 -129 -163 -96 -301 -98 -347 -3 -31 63 33 136 118 136
19 0 73 -12 119 -25z m-219 -206 c90 -30 185 -30 234 -1 49 29 55 28 25 -4
-67 -72 -212 -155 -306 -174 -97 -20 -183 25 -183 97 0 96 89 127 230 82z
m-345 -124 c25 -25 45 -49 45 -53 0 -12 -206 -182 -221 -182 -20 0 -49 31 -49
53 0 19 157 225 172 226 4 1 28 -19 53 -44z"/>
</g>
</svg>
